<svg width="177" height="21" viewBox="0 0 177 21" fill="none" xmlns="http://www.w3.org/2000/svg">
<path d="M53.4077 19.4834L46.4973 10.2285L53.0992 3.43298V3.30354H46.8367L42.5794 8.31931C42.055 8.99887 41.4688 9.7755 40.9444 10.5845V0.191406H35.6382V19.4834H40.9444V15.9239L43.1347 13.691L47.1452 19.4834H53.4077Z" fill="#1C1C1C"/>
<path d="M74.2005 15.2767L70.7762 3.30354H65.1924L61.768 15.2443L59.2075 3.30354H53.8705L57.6342 19.4834H65.0073L67.7529 8.83707L70.4677 19.4834H77.81L81.6045 3.30354H76.6685L74.2005 15.2767Z" fill="#1C1C1C"/>
<path d="M88.1408 1.79082V0.191451H82.6496V1.79082H88.1408ZM88.0483 19.4834V3.30354H82.7421V19.4834H88.0483Z" fill="#1C1C1C"/>
<path d="M107.619 19.4834L100.709 10.2285L107.311 3.43298V3.30354H101.048L96.7909 8.31931C96.2664 8.99887 95.6803 9.7755 95.1558 10.5845V0.191406H89.8496V19.4834H95.1558V15.9239L97.3462 13.691L101.357 19.4834H107.619Z" fill="#1C1C1C"/>
<path d="M128.412 15.2767L124.988 3.30354H119.404L115.979 15.2443L113.419 3.30354H108.082L111.846 19.4834H119.219L121.964 8.83707L124.679 19.4834H132.021L135.816 3.30354H130.88L128.412 15.2767Z" fill="#1C1C1C"/>
<path d="M141.735 1.79082V0.191451H136.244V1.79082H141.735ZM141.643 19.4834V3.30354H136.337V19.4834H141.643Z" fill="#1C1C1C"/>
<path d="M154.458 2.78578C151.712 2.78578 149.923 4.17726 148.905 6.28065V3.30354H143.598V19.4834H148.905V11.8789C148.905 8.70763 150.139 7.2838 152.267 7.2838C154.118 7.2838 154.951 8.44875 154.951 10.5845V19.4834H160.257V9.64607C160.257 5.40693 158.499 2.78578 154.458 2.78578Z" fill="#1C1C1C"/>
<path d="M161.575 14.2735C161.699 17.2506 163.796 20.0012 169.442 20.0012C175.18 20.0012 177 17.5742 177 14.5C177 11.3935 175.488 9.84022 171.848 9.45191L168.671 9.12831C167.221 8.96651 166.85 8.35167 166.85 7.67212C166.85 6.76604 167.529 6.08649 169.318 6.08649C171.015 6.08649 171.848 6.83076 172.002 8.09279H176.815C176.507 4.3067 173.545 2.78578 169.288 2.78578C165.154 2.78578 162.007 4.33906 162.007 8.18987C162.007 11.0052 163.611 12.6879 166.604 13.0438L169.874 13.4322C171.663 13.6587 171.941 14.3382 171.941 15.1472C171.941 16.0857 171.262 16.6681 169.534 16.6681C167.56 16.6681 166.511 15.6003 166.388 14.2735H161.575Z" fill="#1C1C1C"/>
<path d="M29.6987 20L15.9949 16.81V3.19007L29.6987 2.4319e-05V20Z" fill="url(#paint0_linear_2409_29)"/>
<g filter="url(#filter0_b_2409_29)">
<path d="M29.6909 20L7.99708 16.8099V3.19004L21.7009 1.86723e-07L29.6909 20Z" fill="url(#paint1_linear_2409_29)"/>
</g>
<g filter="url(#filter1_b_2409_29)">
<path d="M29.689 20L-0.00104588 16.81V3.19007L13.7028 2.4319e-05L29.689 20Z" fill="url(#paint2_linear_2409_29)"/>
</g>
<defs>
<filter id="filter0_b_2409_29" x="5.99707" y="-2" width="25.6938" height="24" filterUnits="userSpaceOnUse" color-interpolation-filters="sRGB">
<feFlood flood-opacity="0" result="BackgroundImageFix"/>
<feGaussianBlur in="BackgroundImage" stdDeviation="1"/>
<feComposite in2="SourceAlpha" operator="in" result="effect1_backgroundBlur_2409_29"/>
<feBlend mode="normal" in="SourceGraphic" in2="effect1_backgroundBlur_2409_29" result="shape"/>
</filter>
<filter id="filter1_b_2409_29" x="-4.00098" y="-4" width="37.6899" height="28" filterUnits="userSpaceOnUse" color-interpolation-filters="sRGB">
<feFlood flood-opacity="0" result="BackgroundImageFix"/>
<feGaussianBlur in="BackgroundImage" stdDeviation="2"/>
<feComposite in2="SourceAlpha" operator="in" result="effect1_backgroundBlur_2409_29"/>
<feBlend mode="normal" in="SourceGraphic" in2="effect1_backgroundBlur_2409_29" result="shape"/>
</filter>
<linearGradient id="paint0_linear_2409_29" x1="28.6602" y1="10.0928" x2="18.7369" y2="10.0928" gradientUnits="userSpaceOnUse">
<stop/>
<stop offset="1" stop-opacity="0"/>
</linearGradient>
<linearGradient id="paint1_linear_2409_29" x1="23.377" y1="10.0928" x2="13.3549" y2="10.0928" gradientUnits="userSpaceOnUse">
<stop/>
<stop offset="1" stop-opacity="0"/>
</linearGradient>
<linearGradient id="paint2_linear_2409_29" x1="18.5875" y1="10.0928" x2="1.76439" y2="10.0928" gradientUnits="userSpaceOnUse">
<stop/>
<stop offset="1" stop-opacity="0"/>
</linearGradient>
</defs>
</svg>
