<svg width="24" height="24" viewBox="0 0 24 24" fill="none" xmlns="http://www.w3.org/2000/svg">
<path d="M7.14832 16.9245V21.155C7.14832 21.6311 7.79754 21.8551 8.15839 21.5183L13.7315 16.9245H18.4304C19.8954 16.9245 21.0916 15.8543 21.0916 14.5436V5.38016C21.0916 4.06973 19.8954 2.99951 18.4304 2.99951H5.07731C3.61236 2.99951 2.41618 4.06947 2.41618 5.38016V14.5436C2.41618 15.8543 3.61236 16.9245 5.07731 16.9245H7.14832ZM16.6478 8.7146C16.0929 8.7146 15.6431 9.11702 15.6431 9.61348C15.6431 10.1099 16.0929 10.5124 16.6478 10.5124C17.2027 10.5124 17.6525 10.1099 17.6525 9.61348C17.6525 9.11702 17.2027 8.7146 16.6478 8.7146ZM6.85993 8.7146C6.30503 8.7146 5.85525 9.11702 5.85525 9.61348C5.85525 10.1099 6.30503 10.5124 6.85993 10.5124C7.41482 10.5124 7.8646 10.1099 7.8646 9.61348C7.8646 9.11702 7.41482 8.7146 6.85993 8.7146ZM10.1226 8.7146C9.56766 8.7146 9.11788 9.11702 9.11788 9.61348C9.11788 10.1099 9.56766 10.5124 10.1226 10.5124C10.6775 10.5124 11.1272 10.1099 11.1272 9.61348C11.1272 9.11702 10.6775 8.7146 10.1226 8.7146ZM13.3852 8.7146C12.8303 8.7146 12.3805 9.11702 12.3805 9.61348C12.3805 10.1099 12.8303 10.5124 13.3852 10.5124C13.9401 10.5124 14.3899 10.1099 14.3899 9.61348C14.3899 9.11702 13.9401 8.7146 13.3852 8.7146ZM8.32176 19.959V16.3993C8.32176 16.1095 8.05894 15.8744 7.73503 15.8744H5.07731C4.26045 15.8744 3.58963 15.2744 3.58963 14.5436V5.38016C3.58963 4.64932 4.26045 4.04939 5.07731 4.04939H18.4304C19.2476 4.04939 19.9181 4.64932 19.9181 5.38016V14.5436C19.9181 15.2744 19.2476 15.8744 18.4304 15.8744L13.5042 15.8756C13.3625 15.8756 13.2201 15.9211 13.1076 16.0139L8.32176 19.959Z" fill="black" stroke="black" stroke-width="0.5"/>
</svg>
