<svg width="70" height="70" viewBox="0 0 70 70" fill="none" xmlns="http://www.w3.org/2000/svg">
<path d="M35 69.7441C54.1887 69.7441 69.7442 54.1886 69.7442 34.9999C69.7442 15.8113 54.1887 0.255783 35 0.255783C15.8114 0.255783 0.255882 15.8113 0.255882 34.9999C0.255882 54.1886 15.8114 69.7441 35 69.7441Z" fill="#DDE9AF"/>
<path fill-rule="evenodd" clip-rule="evenodd" d="M32.1031 36.6334C32.1031 36.6334 25.1951 37.1619 22.1348 35.8408C18.71 34.3625 13.8381 28.3311 13.8381 28.3311C13.8381 28.3311 22.8713 26.1085 25.9351 27.7048C29.1431 29.3762 31.4624 34.0261 32.1031 36.6334Z" fill="#88AA00"/>
<path fill-rule="evenodd" clip-rule="evenodd" d="M34.5088 36.545C35.4006 33.5076 33.0144 28.8198 34.5088 26.8634C34.9586 26.3952 36.0205 26.1697 36.4465 26.6596C36.2018 29.0716 36.1002 33.9348 37.4154 36.3412C36.4255 36.5767 35.3742 37.304 34.5088 36.545Z" fill="#C87137"/>
<path fill-rule="evenodd" clip-rule="evenodd" d="M39.1402 38.0244C35.1182 38.0923 31.6602 38.9766 29.1072 41.4146C26.6594 43.7521 26.7412 47.7593 25.4169 50.8742C23.019 56.5142 19.7416 60.0543 17.7905 65.1522C23.0306 68.1523 28.9621 69.735 35.0002 69.7442C42.2373 69.7287 49.2889 67.4536 55.1705 63.2366C54.0361 59.9412 51.2521 56.5942 49.1977 53.3317C45.9444 48.1654 45.4886 37.9481 39.1402 38.0244V38.0244Z" fill="#BCD35F"/>
<path d="M40.3661 44.747C42.3585 46.4237 43.0695 49.2768 42.8695 52.1259" stroke="white" stroke-width="4.30122" stroke-linecap="round" stroke-linejoin="round"/>
</svg>
