<svg width="24" height="24" viewBox="0 0 24 24" fill="none" xmlns="http://www.w3.org/2000/svg">
<path d="M16.5 14C15 14 13.8 14.4 12.9 14.9C14.3 16.1 14.9 17.5 15 17.6L15.1 17.8V20H23.1V18C23 18 21.4 14 16.5 14Z" fill="black"/>
<path d="M16.5 12C18.433 12 20 10.433 20 8.5C20 6.567 18.433 5 16.5 5C14.567 5 13 6.567 13 8.5C13 10.433 14.567 12 16.5 12Z" fill="black"/>
<path d="M4 8.5C4 6.6 5.6 5 7.5 5C9.4 5 11 6.6 11 8.5C11 10.4 9.4 12 7.5 12C5.6 12 4 10.4 4 8.5ZM7.5 14C2.6 14 1 18 1 18V20H14V18C14 18 12.4 14 7.5 14Z" fill="black"/>
</svg>
