<svg width="24" height="24" viewBox="0 0 24 24" fill="none" xmlns="http://www.w3.org/2000/svg">
<path d="M12.75 15.5799V8.42014L13.7517 9.31056C14.0613 9.58575 14.5354 9.55786 14.8105 9.24827C15.0857 8.93869 15.0579 8.46463 14.7483 8.18945L12.4983 6.18945C12.2141 5.93685 11.7859 5.93685 11.5017 6.18945L9.25173 8.18945C8.94214 8.46463 8.91426 8.93869 9.18945 9.24827C9.46463 9.55786 9.93869 9.58575 10.2483 9.31056L11.25 8.42013V15.5799L10.2483 14.6895C9.93869 14.4143 9.46463 14.4421 9.18945 14.7517C8.91426 15.0613 8.94214 15.5354 9.25173 15.8106L11.5017 17.8106C11.5057 17.8141 11.5098 17.8177 11.5139 17.8211C11.6379 17.9268 11.7969 17.9928 11.971 17.9995C11.9897 18.0002 12.0084 18.0002 12.027 17.9995C12.2088 17.9931 12.3742 17.9219 12.5007 17.8084L14.7483 15.8106C15.0579 15.5354 15.0857 15.0613 14.8105 14.7517C14.5354 14.4421 14.0613 14.4143 13.7517 14.6895L12.75 15.5799Z" fill="#C9CEE3"/>
<path d="M17.75 21C19.5449 21 21 19.5449 21 17.75V6.25C21 4.45507 19.5449 3 17.75 3H6.25C4.45508 3 3 4.45507 3 6.25V17.75C3 19.5449 4.45508 21 6.25 21H17.75ZM19.5 17.75C19.5 18.7165 18.7165 19.5 17.75 19.5H6.25C5.2835 19.5 4.5 18.7165 4.5 17.75V17.5H9.64715L8.58734 16.558C8.40599 16.3967 8.26606 16.2063 8.16835 16H4.5V8H8.16834C8.26605 7.79371 8.40598 7.60324 8.58734 7.44203L9.64713 6.5H4.5V6.25C4.5 5.2835 5.2835 4.5 6.25 4.5H17.75C18.7165 4.5 19.5 5.2835 19.5 6.25V6.5H14.3528L15.4126 7.44203C15.594 7.60324 15.7339 7.79371 15.8316 8H19.5V16H15.8316C15.7339 16.2063 15.594 16.3967 15.4126 16.558L14.3528 17.5H19.5V17.75Z" fill="#C9CEE3"/>
</svg>
